<?xml version="1.0" standalone="no"?>
<!DOCTYPE svg PUBLIC "-//W3C//DTD SVG 20010904//EN"
 "http://www.w3.org/TR/2001/REC-SVG-20010904/DTD/svg10.dtd">
<svg version="1.0" xmlns="http://www.w3.org/2000/svg"
 width="2120.000000pt" height="2120.000000pt" viewBox="0 0 2120.000000 2120.000000"
 preserveAspectRatio="xMidYMid meet">
<metadata>
Created by potrace 1.14, written by Peter Selinger 2001-2017
</metadata>
<g transform="translate(0.000000,2120.000000) scale(0.100000,-0.100000)"
fill="#000000" stroke="none">
<path d="M2275 20532 c-149 -98 -332 -218 -407 -267 -156 -102 -450 -295 -708
-465 -96 -63 -179 -117 -185 -120 -5 -3 -91 -59 -190 -124 -99 -65 -256 -169
-350 -230 -312 -205 -320 -210 -320 -229 0 -10 -24 -33 -57 -56 l-56 -38 22
-39 c22 -39 108 -174 221 -349 62 -97 425 -644 437 -660 22 -28 139 -198 148
-214 5 -11 16 -25 22 -33 7 -7 37 -49 67 -93 79 -117 114 -168 129 -183 6 -7
12 -17 12 -21 0 -4 8 -16 18 -27 9 -10 31 -39 47 -64 17 -25 34 -49 38 -55 14
-17 186 -257 229 -320 23 -33 46 -64 50 -70 13 -16 70 -93 137 -185 33 -47 65
-90 70 -96 5 -6 26 -35 47 -65 59 -83 430 -577 632 -841 204 -268 188 -224
138 -388 -14 -47 -39 -132 -55 -190 -16 -58 -47 -170 -69 -250 -63 -227 -193
-718 -208 -789 -8 -35 -16 -66 -19 -70 -2 -4 -6 -18 -9 -32 -2 -13 -25 -108
-50 -210 -25 -102 -47 -196 -50 -210 -2 -13 -18 -84 -35 -158 -17 -73 -33
-143 -35 -155 -2 -11 -9 -41 -15 -66 -5 -25 -12 -56 -15 -70 -2 -14 -9 -45
-15 -70 -5 -25 -13 -61 -16 -80 -3 -19 -10 -53 -15 -75 -5 -22 -11 -53 -14
-70 -3 -16 -8 -41 -11 -55 -10 -52 -28 -146 -30 -165 -2 -11 -8 -47 -14 -80
-6 -33 -13 -78 -16 -100 -3 -22 -10 -62 -15 -90 -5 -27 -12 -74 -15 -104 -4
-30 -8 -61 -10 -70 -1 -9 -6 -45 -9 -81 -4 -36 -9 -78 -12 -95 -2 -16 -6 -127
-9 -245 -4 -222 1 -272 50 -500 12 -57 83 -342 120 -480 26 -98 60 -218 76
-270 11 -36 22 -74 25 -85 2 -11 18 -65 35 -120 65 -212 121 -392 136 -435 8
-25 16 -52 18 -60 8 -37 293 -865 314 -915 5 -11 48 -126 96 -255 78 -210 262
-683 285 -735 5 -11 60 -139 121 -285 244 -583 612 -1353 841 -1759 16 -30 42
-77 58 -105 64 -118 214 -372 304 -514 53 -85 96 -158 96 -163 0 -5 4 -9 8 -9
5 0 13 -10 19 -22 28 -60 400 -576 489 -678 12 -14 64 -74 115 -135 98 -116
400 -422 532 -540 44 -39 89 -79 101 -90 12 -11 46 -40 75 -65 29 -25 65 -56
80 -68 14 -13 123 -101 241 -196 511 -409 1103 -807 1695 -1139 27 -16 68 -39
90 -51 22 -13 76 -42 120 -66 44 -24 104 -56 133 -72 136 -75 605 -304 767
-375 44 -19 108 -48 142 -64 418 -190 1125 -447 1628 -589 137 -39 478 -127
565 -146 105 -23 442 -93 480 -99 19 -3 71 -12 115 -20 71 -13 154 -26 265
-41 19 -2 46 -7 60 -9 14 -3 52 -8 85 -11 33 -3 62 -7 65 -9 3 -1 43 -6 90
-10 47 -4 94 -9 104 -11 11 -2 60 -6 110 -10 50 -3 98 -7 106 -9 59 -11 331
-20 645 -20 371 0 576 8 770 30 33 4 80 8 105 11 25 2 59 6 75 8 17 3 53 8 80
11 28 4 61 8 75 10 22 4 294 49 360 60 55 10 221 45 320 69 58 14 116 27 130
29 127 23 879 247 995 297 11 4 92 34 180 65 88 32 165 60 170 64 6 4 28 13
50 20 22 7 54 19 70 27 17 7 75 31 130 52 382 151 1040 465 1480 707 873 479
1800 1104 2350 1585 23 19 72 62 110 95 115 99 357 344 425 430 111 141 128
204 89 326 -33 103 -64 166 -194 387 -16 27 -128 195 -142 212 -6 8 -51 69
-99 135 -73 101 -370 478 -407 518 -7 6 -35 39 -62 72 -28 33 -54 65 -60 71
-5 6 -32 37 -60 69 -76 89 -96 107 -111 101 -8 -3 -54 -10 -102 -16 -48 -6
-100 -13 -117 -15 -104 -14 -173 -22 -265 -30 -36 -3 -75 -7 -85 -9 -11 -2
-65 -7 -120 -11 -55 -4 -113 -8 -130 -10 -16 -2 -84 -7 -150 -10 -66 -4 -147
-8 -180 -10 -259 -16 -837 -21 -1105 -10 -187 7 -364 15 -435 20 -33 2 -103 6
-155 10 -52 3 -113 8 -135 10 -22 2 -71 7 -110 10 -38 3 -88 8 -110 10 -22 3
-85 9 -140 15 -55 5 -118 12 -140 15 -22 2 -65 7 -95 11 -69 7 -96 10 -190 24
-41 6 -93 13 -115 15 -22 3 -51 7 -65 10 -14 2 -45 7 -70 10 -25 4 -56 8 -70
10 -14 2 -79 13 -145 24 -66 11 -131 22 -145 25 -14 3 -43 8 -65 11 -42 6
-467 91 -620 124 -510 111 -1215 316 -1700 495 -123 46 -403 154 -430 166 -11
5 -87 38 -170 74 -456 196 -915 437 -1245 655 -63 42 -119 78 -125 80 -5 2
-29 18 -51 35 -23 17 -55 40 -70 51 -93 67 -131 95 -144 107 -9 7 -34 26 -55
42 -99 74 -303 257 -464 417 -194 194 -339 353 -645 709 -267 310 -900 1136
-1231 1605 -27 39 -54 75 -60 82 -5 7 -25 34 -43 60 -18 26 -55 80 -82 118
-28 39 -54 77 -60 85 -6 8 -32 47 -60 85 -27 39 -63 90 -80 115 -17 25 -61 88
-98 140 -36 52 -112 163 -169 245 -132 192 -949 1414 -1073 1605 -52 80 -152
232 -222 339 -70 107 -128 196 -128 198 0 2 -5 9 -10 16 -6 7 -115 170 -242
362 -237 359 -387 577 -400 583 -5 2 -8 8 -8 13 0 12 -97 137 -149 192 -79 85
-209 171 -401 268 -105 52 -392 179 -406 179 -3 0 -20 6 -37 14 -45 19 -124
50 -422 160 -143 54 -269 101 -280 106 -11 5 -72 31 -137 58 -208 87 -308 157
-308 216 0 9 -245 997 -546 2194 -300 1197 -572 2286 -606 2420 -33 133 -63
242 -67 242 -4 0 -128 -80 -276 -178z"/>
</g>
</svg>
